<svg id="visual" viewBox="0 0 200 200" width="200" height="200" xmlns="http://www.w3.org/2000/svg" xmlns:xlink="http://www.w3.org/1999/xlink" version="1.1"><rect x="0" y="0" width="200" height="200" fill="#CCCCCC"></rect><g transform="translate(85.90474628587211 97.50498068747372)"><path d="M66.7 -111.1C74.6 -86.1 61.1 -50.8 76.5 -20.7C91.9 9.3 136.3 34 136.7 48C137.1 62.1 93.5 65.4 63.4 89C33.3 112.5 16.7 156.3 0.6 155.4C-15.5 154.6 -31 109.3 -52.4 82.9C-73.8 56.5 -101.1 49.1 -107.1 34C-113.2 18.9 -98 -4 -90.8 -30.5C-83.6 -57 -84.4 -87.2 -70.6 -110.4C-56.8 -133.5 -28.4 -149.8 0.5 -150.4C29.4 -151.1 58.8 -136.2 66.7 -111.1" fill="#F7770F"></path></g></svg>